<svg width="36" height="29" viewBox="0 0 36 29" fill="none" xmlns="http://www.w3.org/2000/svg">
<path d="M35.8395 2.01782C35.8395 1.24005 35.3732 0.801541 34.5849 0.783585C34.5056 0.781695 34.4254 0.783585 34.3461 0.783585C25.6063 0.783585 16.8676 0.783585 8.12783 0.783585C8.03229 0.783585 7.93674 0.781695 7.84119 0.786421C7.1437 0.815717 6.68889 1.26178 6.67265 1.95923C6.65927 2.54138 6.66882 3.12448 6.66882 3.70663C6.66882 4.18955 6.66882 4.67247 6.66882 5.21493C6.4376 5.21493 6.26657 5.21493 6.09649 5.21493C4.96617 5.21493 3.83584 5.21493 2.70551 5.21682C1.48442 5.21588 0.848071 5.83772 0.845204 7.04078C0.841383 8.946 0.845204 10.8512 0.845204 12.7564C0.845204 15.842 0.841383 18.9286 0.847115 22.0142C0.849026 23.1567 1.49588 23.7899 2.65392 23.8069C2.9568 23.8117 3.26256 23.8362 3.56066 23.8022C3.98681 23.7531 4.13204 23.9289 4.18937 24.3324C4.36231 25.5477 4.562 26.7593 4.77603 27.969C4.91075 28.7288 5.59965 29.0076 6.25128 28.5842C6.40893 28.4821 6.54557 28.3432 6.67551 28.2071C7.95489 26.8689 9.23714 25.5336 10.5031 24.1831C10.7487 23.9213 10.9904 23.8003 11.364 23.8013C15.7735 23.8145 20.1831 23.8013 24.5926 23.8164C25.4525 23.8192 26.258 23.7767 26.752 22.8836C27.3826 23.5442 27.9597 24.1491 28.5368 24.7539C29.1703 25.4183 29.7932 26.0921 30.442 26.7413C30.5844 26.8831 30.8175 26.9351 31.0086 27.0286C31.0927 26.8547 31.2178 26.6893 31.2532 26.507C31.3717 25.905 31.4567 25.2963 31.5561 24.6906C31.7462 23.531 31.9373 22.3724 32.1322 21.1816C32.9864 21.1816 33.7967 21.1939 34.606 21.1778C35.3703 21.1636 35.8376 20.7128 35.8376 19.9681C35.8433 13.985 35.8433 8.00189 35.8376 2.01877L35.8395 2.01782ZM17.9683 13.4151C18.6973 11.5874 19.4368 9.76347 20.1515 7.92912C20.27 7.62482 20.4219 7.51236 20.7439 7.53598C21.2322 7.57189 21.8303 7.41029 22.1819 7.63616C22.5106 7.84785 22.587 8.45268 22.76 8.8893C23.3925 10.4836 24.0202 12.0788 24.6461 13.676C24.69 13.7875 24.7034 13.9094 24.7464 14.0965C24.2142 14.0965 23.7279 14.1079 23.2425 14.0871C23.1441 14.0833 23.0409 13.9699 22.9606 13.8867C22.91 13.8338 22.8957 13.7459 22.867 13.6722C22.5969 12.9729 22.0886 12.6248 21.3421 12.6279C21.3258 12.6279 21.3105 12.6279 21.2943 12.6279C20.8662 12.6383 20.3445 12.5041 20.0388 12.7007C19.7598 12.8803 19.7283 13.4218 19.5582 13.7913C19.5037 13.9104 19.3633 14.0672 19.2543 14.0739C18.7699 14.105 18.2817 14.0871 17.7208 14.0871C17.8211 13.813 17.8899 13.6117 17.9692 13.4142L17.9683 13.4151ZM12.9941 7.57473H17.2794V8.73147H14.6298V10.3296H17.0653V11.5354H14.6165V14.0531H12.9941V7.57473ZM25.5146 22.2618C25.5031 22.3648 25.1057 22.4952 24.884 22.4962C20.1878 22.5094 15.4917 22.5103 10.7955 22.499C10.4305 22.499 10.1783 22.6011 9.93082 22.8666C8.75463 24.1273 7.55646 25.3691 6.37072 26.6213C6.2637 26.7347 6.18631 26.8746 6.09458 27.0022C6.0449 26.9738 5.99426 26.9455 5.94457 26.9171C5.82418 26.1904 5.70284 25.4627 5.5834 24.7359C5.46397 24.0092 5.3474 23.2815 5.22128 22.5066C4.41772 22.5066 3.64188 22.5075 2.86603 22.5066C2.23447 22.5056 2.17427 22.4489 2.17427 21.846C2.17427 16.9648 2.17427 12.0836 2.17427 7.20238C2.17427 6.55124 2.20867 6.52194 2.88514 6.521C4.12439 6.521 5.36364 6.521 6.66787 6.521V7.07007C6.66787 11.2737 6.66787 15.4782 6.66882 19.6818C6.66882 20.8026 7.05197 21.1825 8.18421 21.1825C13.6925 21.1825 19.1999 21.1806 24.7082 21.1929C24.9203 21.1929 25.2289 21.2695 25.3216 21.416C25.4716 21.6532 25.5461 21.9849 25.5146 22.2618ZM31.0258 16.0415C29.9633 16.0254 29.2926 15.2826 28.6094 14.5936C28.4422 14.4254 28.2234 14.2298 28.0055 14.1995C25.9274 13.9094 24.9002 12.0788 25.3054 10.0631C25.5672 8.75888 26.3153 7.85635 27.6463 7.54732C29.0212 7.22789 30.2413 7.50196 31.1443 8.67004C32.1017 9.90806 32.1169 12.9086 29.9729 13.8612C29.9165 13.8867 29.8658 13.9255 29.7837 13.9756C30.4248 14.7637 31.257 14.8932 32.2096 14.7297C32.2679 16.0821 32.48 16.0641 31.0248 16.0424L31.0258 16.0415Z" fill="white"/>
</svg>
